<svg width="683" height="684" viewBox="0 0 683 684" fill="none" xmlns="http://www.w3.org/2000/svg">
  <g clip-path="url(#clip0_1_2)">
    <path d="M74 2.36662C59.8666 5.83329 54.9333 9.29996 31.8666 32.3666C7.33329 56.9 3.99996 61.9666 1.06663 79.0333C-0.133374 86.5 -0.133374 90.5 1.06663 97.8333C4.53329 117.967 0.133293 113.033 119.733 232.767L228.667 341.833L119.2 451.433C16.2666 554.633 9.59996 561.7 6.13329 569.7C-1.60004 587.3 -1.60004 604.9 6.26663 621.567C11.2 632.5 50.6666 671.967 61.6 676.9C72.9333 682.233 85.8666 684.1 97.4666 682.1C117.333 678.633 111.467 683.833 231.6 563.967L341.333 454.5L450.267 563.433C570.133 683.033 565.2 678.633 585.333 682.1C596.8 684.1 609.867 682.233 621.067 676.9C632 671.967 671.467 632.5 676.4 621.567C681.733 610.367 683.6 597.3 681.6 585.833C678.133 565.7 682.533 570.633 562.933 450.9L454 341.833L562.933 232.767C682.533 113.033 678.133 117.967 681.6 97.8333C683.6 86.3666 681.733 73.3 676.4 62.1C671.467 51.3 632.133 11.9666 621.067 6.76662C604.533 -1.10004 586.8 -1.10004 569.2 6.63329C561.2 10.1 554.133 16.7666 450.933 119.7L341.333 229.167L231.6 119.7C138 26.2333 120.933 9.83329 114.667 6.89996C101.2 0.63329 87.3333 -0.96671 74 2.36662Z" fill="currentColor"/>
  </g>
  <defs>
    <clipPath id="clip0_1_2">
      <rect width="682.667" height="682.667" fill="white" transform="translate(0 0.5)"/>
    </clipPath>
  </defs>
</svg>
