<svg width="683" height="683" viewBox="0 0 683 683" fill="none" xmlns="http://www.w3.org/2000/svg">
  <path d="M565.333 61.7334C563.467 62.6667 498.267 137.467 420.4 228C342.4 318.533 277.333 393.333 275.733 394.267C271.333 396.667 262.533 396.4 258.533 393.6C256.667 392.4 223.067 361.067 184.133 324C145.067 286.933 111.067 255.6 108.533 254.133C105.067 252.267 102.533 251.867 98 252.533C91.7333 253.467 88.4 256.8 11.2 338.933C0.66665 350.133 -1.46668 355.067 1.19998 363.067C2.39998 366.533 33.0667 396.4 133.467 491.467C205.333 559.6 266.267 616.933 268.933 618.933C274.133 623.067 280.267 623.733 286.133 621.067C289.2 619.6 673.6 174.8 679.867 165.333C682.533 161.333 682.533 150.8 679.867 147.067C677.6 143.733 587.6 66 582 62.5334C577.333 59.6 570.133 59.3334 565.333 61.7334Z" fill="currentColor"/>
</svg>