<svg width="683" height="683" viewBox="0 0 683 683" fill="none" xmlns="http://www.w3.org/2000/svg">
  <path d="M152 0.933298C126.667 3.7333 97.6 14.4 76.6667 28.4C65.6 35.8666 62.2667 38.6666 49.6 51.0666C26.6667 73.6 10.5333 103.6 3.19999 137.333C0.79999 148.133 0.666656 158.133 0.666656 341.333C0.666656 524.533 0.79999 534.533 3.19999 545.333C18.2667 614 68.6667 664.4 137.333 679.467C148.133 681.867 158.133 682 341.333 682C524.533 682 534.533 681.867 545.333 679.467C614 664.4 664.4 614 679.467 545.333C681.867 534.533 682 524.533 682 341.333C682 158.133 681.867 148.133 679.467 137.333C666.133 76.2666 623.2 27.6 566 8.9333C539.6 0.266631 555.6 0.799964 346.667 0.666631C242.133 0.533298 154.533 0.666631 152 0.933298ZM534.667 59.2C547.2 61.8666 563.333 68.4 573.2 74.9333C599.067 91.8666 618.4 120.533 623.867 150C624.933 155.333 625.333 215.333 625.333 341.867C625.333 493.467 624.933 527.6 623.467 534.667C619.067 555.467 607.867 576.267 592.933 591.733C577.867 607.2 552.933 620.4 531.733 624C525.867 624.933 465.6 625.333 336 625.067L148.667 624.667L136 620.267C118.4 614.133 104.133 605.333 91.3333 592.667C74.2667 575.867 64 557.333 59.2 534.667C56.5333 521.733 56.5333 160.933 59.2 148C68.6667 103.6 102.933 69.0666 147.333 59.3333C159.467 56.6666 522.133 56.5333 534.667 59.2Z" fill="currentColor"/>
  <path d="M330.667 172.8C325.067 175.2 319.2 180.533 316.267 186C314.267 189.467 313.867 197.467 313.333 251.333L312.667 312.667L251.333 313.333C184.267 314 186.4 313.733 178.4 322.267C168.267 332.933 168.267 349.733 178.4 360.4C186.4 368.933 184.267 368.667 251.333 369.333L312.667 370L313.333 431.333C314 498.4 313.733 496.267 322.267 504.267C332.933 514.4 349.733 514.4 360.4 504.267C368.933 496.267 368.667 498.4 369.333 431.333L370 370L431.333 369.333C498.4 368.667 496.267 368.933 504.267 360.4C514.4 349.733 514.4 332.933 504.267 322.267C496.267 313.733 498.4 314 431.333 313.333L370 312.667L369.333 251.333C368.667 184.267 368.933 186.4 360.4 178.4C352.667 170.933 340.267 168.667 330.667 172.8Z" fill="currentColor"/>
</svg>